# Blender 3.6.2
# www.blender.org
mtllib Pillar.mtl
o Low_Poly
v -0.318640 0.000000 0.318640
v 0.318640 0.000000 0.318640
v -0.318640 0.000000 -0.318640
v 0.318640 0.000000 -0.318640
v -0.219662 0.097680 -0.219662
v -0.219662 0.097680 0.219662
v 0.219662 0.097680 0.219662
v 0.219662 0.097680 -0.219662
v -0.219662 0.165855 -0.219662
v -0.219662 0.165855 0.219662
v 0.219662 0.165855 0.219662
v 0.219662 0.165855 -0.219662
v -0.229172 0.259648 -0.229172
v -0.229172 0.259648 0.229172
v 0.229172 0.259648 0.229172
v 0.229172 0.259648 -0.229172
v -0.229172 1.399650 -0.229172
v -0.229172 1.399650 0.229172
v 0.229172 1.399650 0.229172
v 0.229172 1.399650 -0.229172
v -0.251130 1.484532 -0.251130
v -0.251130 1.484532 0.251130
v 0.251130 1.484532 0.251130
v 0.251130 1.484532 -0.251130
v -0.251130 1.565933 -0.251130
v -0.251130 1.565933 0.251130
v 0.251130 1.565933 0.251130
v 0.251130 1.565933 -0.251130
v -0.322159 1.725897 -0.322159
v -0.322159 1.725897 0.322159
v 0.322159 1.725897 0.322159
v 0.322159 1.725897 -0.322159
v 0.192145 0.351740 -0.229172
v -0.192145 0.351740 -0.229172
v 0.192145 1.307558 -0.229172
v -0.192145 1.307558 -0.229172
v -0.229172 0.349589 -0.193010
v -0.229172 0.349589 0.193010
v -0.229172 1.309709 -0.193010
v -0.229172 1.309709 0.193010
v 0.229172 0.340755 0.196562
v 0.229172 0.340755 -0.196562
v 0.229172 1.318544 0.196562
v 0.229172 1.318544 -0.196562
v -0.201873 0.327545 0.229172
v 0.201873 0.327545 0.229172
v -0.201873 1.331753 0.229172
v 0.201873 1.331753 0.229172
v 0.192145 0.351740 -0.203947
v -0.192145 0.351740 -0.203947
v 0.192145 1.307558 -0.203947
v -0.192145 1.307558 -0.203947
v -0.203947 0.349589 -0.193010
v -0.203947 0.349589 0.193010
v -0.203947 1.309709 -0.193010
v -0.203947 1.309709 0.193010
v 0.203947 0.340755 0.196562
v 0.203947 0.340755 -0.196562
v 0.203947 1.318544 0.196562
v 0.203947 1.318544 -0.196562
v -0.201873 0.327545 0.203947
v 0.201873 0.327545 0.203947
v -0.201873 1.331753 0.203947
v 0.201873 1.331753 0.203947
v -0.271034 1.753195 -0.271034
v -0.271034 1.753195 0.271034
v 0.271034 1.753195 0.271034
v 0.271034 1.753195 -0.271034
v -0.330471 1.484532 -0.330471
v -0.347249 1.467754 -0.347249
v -0.347249 1.467754 0.347249
v -0.330471 1.484532 0.330471
v 0.347249 1.467754 0.347249
v 0.330471 1.484532 0.330471
v 0.347249 1.467754 -0.347249
v 0.330471 1.484532 -0.330471
v -0.347249 1.420792 -0.347249
v -0.326107 1.399650 -0.326107
v -0.326107 1.399650 0.326107
v -0.347249 1.420792 0.347249
v 0.326107 1.399650 0.326107
v 0.347249 1.420792 0.347249
v 0.326107 1.399650 -0.326107
v 0.347249 1.420792 -0.347249
v -0.322159 1.581831 -0.322159
v -0.306261 1.565933 -0.306261
v -0.306261 1.565933 0.306261
v -0.322159 1.581831 0.322159
v 0.306261 1.565933 0.306261
v 0.322159 1.581831 0.322159
v 0.306261 1.565933 -0.306261
v 0.322159 1.581831 -0.322159
v -0.294749 0.259648 -0.294749
v -0.312575 0.241823 -0.312575
v -0.312575 0.241823 0.312575
v -0.294749 0.259648 0.294749
v 0.312575 0.241823 0.312575
v 0.294749 0.259648 0.294749
v 0.312575 0.241823 -0.312575
v 0.294749 0.259648 -0.294749
v -0.312575 0.182377 -0.312575
v -0.296053 0.165855 -0.296053
v -0.296053 0.165855 0.296053
v -0.312575 0.182377 0.312575
v 0.296053 0.165855 0.296053
v 0.312575 0.182377 0.312575
v 0.296053 0.165855 -0.296053
v 0.312575 0.182377 -0.312575
v -0.302072 0.097680 -0.302072
v -0.318640 0.081111 -0.318640
v -0.318640 0.081111 0.318640
v -0.302072 0.097680 0.302072
v 0.318640 0.081111 0.318640
v 0.302072 0.097680 0.302072
v 0.318640 0.081111 -0.318640
v 0.302072 0.097680 -0.302072
vn -0.0000 -1.0000 -0.0000
vn -0.0000 1.0000 -0.0000
vn -1.0000 -0.0000 -0.0000
vn 1.0000 -0.0000 -0.0000
vn -0.0000 -0.0000 1.0000
vn -0.0000 -0.0000 -1.0000
vn -0.0000 0.8821 0.4710
vn 0.4710 0.8821 -0.0000
vn -0.4710 0.8821 -0.0000
vn -0.0000 0.8821 -0.4710
vn -0.7071 0.7071 -0.0000
vn -0.0000 0.7071 0.7071
vn 0.7071 0.7071 -0.0000
vn -0.0000 0.7071 -0.7071
vn -0.7071 -0.7071 -0.0000
vn -0.0000 -0.7071 0.7071
vn 0.7071 -0.7071 -0.0000
vn -0.0000 -0.7071 -0.7071
vt 0.733548 0.234866
vt 0.733548 0.431491
vt 0.536923 0.431491
vt 0.536923 0.234866
vt 0.848033 0.638107
vt 0.989920 0.638107
vt 0.970565 0.657461
vt 0.867387 0.657461
vt 0.956098 0.085026
vt 0.956098 0.249418
vt 0.935175 0.249418
vt 0.935175 0.085026
vt 0.989920 0.779994
vt 0.970565 0.760640
vt 0.848033 0.779994
vt 0.867387 0.760640
vt 0.926969 0.800274
vt 0.926969 0.858170
vt 0.917984 0.858170
vt 0.917984 0.800274
vt 0.780130 0.198479
vt 0.780130 0.395104
vt 0.755104 0.395104
vt 0.755104 0.198479
vt 0.538589 0.238716
vt 0.538589 0.435341
vt 0.513563 0.435341
vt 0.513563 0.238716
vt 0.526278 0.243017
vt 0.526278 0.439642
vt 0.501252 0.439642
vt 0.501252 0.243017
vt 0.605185 0.199900
vt 0.605185 0.119178
vt 0.619221 0.105141
vt 0.619221 0.213936
vt 0.935953 0.800274
vt 0.935953 0.858170
vt 0.944938 0.800274
vt 0.944938 0.858170
vt 0.953922 0.800274
vt 0.953922 0.858170
vt 0.944938 0.800274
vt 0.524463 0.119178
vt 0.524463 0.199900
vt 0.510427 0.213936
vt 0.510427 0.105141
vt 0.769788 0.239226
vt 0.769788 0.432109
vt 0.751447 0.432109
vt 0.751447 0.239226
vt 0.814476 0.226036
vt 0.814476 0.418918
vt 0.796134 0.418918
vt 0.796134 0.226036
vt 0.733847 0.105381
vt 0.733847 0.213696
vt 0.721798 0.201647
vt 0.721798 0.117430
vt 0.625532 0.213696
vt 0.637581 0.201647
vt 0.494861 0.435444
vt 0.353445 0.435444
vt 0.364869 0.407031
vt 0.483437 0.407031
vt 0.859946 0.024803
vt 0.859946 0.217685
vt 0.841605 0.217685
vt 0.841605 0.024803
vt 0.625532 0.105381
vt 0.637581 0.117430
vt 0.352243 0.435444
vt 0.352243 0.083711
vt 0.360665 0.104660
vt 0.360665 0.414496
vt 0.495558 0.080610
vt 0.495558 0.432344
vt 0.485496 0.407320
vt 0.485496 0.105635
vt 0.494356 0.077510
vt 0.494356 0.429244
vt 0.483199 0.401494
vt 0.483199 0.105260
vt 0.898832 0.085026
vt 0.898832 0.264178
vt 0.886718 0.264178
vt 0.886718 0.085026
vt 0.661341 0.139693
vt 0.661341 0.181475
vt 0.652505 0.190311
vt 0.652505 0.130856
vt 0.910946 0.085026
vt 0.910946 0.264178
vt 0.898832 0.264178
vt 0.898832 0.085026
vt 0.847708 0.476623
vt 0.989894 0.476623
vt 0.972826 0.493691
vt 0.864777 0.493691
vt 0.989894 0.618809
vt 0.847708 0.618809
vt 0.864777 0.601740
vt 0.972826 0.601740
vt 0.703123 0.139693
vt 0.711960 0.130856
vt 0.885802 0.800274
vt 0.885802 0.866464
vt 0.875075 0.866464
vt 0.875075 0.800274
vt 0.703123 0.181475
vt 0.711960 0.190311
vt 0.923061 0.085026
vt 0.923061 0.264178
vt 0.910947 0.264178
vt 0.910947 0.085026
vt 0.332869 0.101363
vt 0.332869 0.450475
vt 0.254809 0.450475
vt 0.254809 0.101363
vt 0.896529 0.800274
vt 0.896529 0.866464
vt 0.907257 0.800274
vt 0.907257 0.866464
vt 0.917984 0.800274
vt 0.917984 0.866464
vt 0.085939 0.103425
vt 0.085939 0.452537
vt 0.007879 0.452537
vt 0.007879 0.103425
vt 0.973364 0.441997
vt 0.973364 0.327976
vt 0.985880 0.315460
vt 0.985880 0.454513
vt 0.163999 0.103425
vt 0.163999 0.452537
vt 0.085939 0.452537
vt 0.085939 0.103425
vt 0.538589 0.237388
vt 0.737385 0.237388
vt 0.721611 0.253162
vt 0.554363 0.253162
vt 0.859343 0.327976
vt 0.846827 0.315460
vt 0.859343 0.441997
vt 0.846827 0.454513
vt 0.963895 0.800274
vt 0.963895 0.850918
vt 0.960571 0.850918
vt 0.960571 0.800274
vt 0.353445 0.083711
vt 0.364869 0.112125
vt 0.494861 0.083711
vt 0.483437 0.112125
vt 0.953922 0.851146
vt 0.953922 0.800274
vt 0.957246 0.800274
vt 0.957246 0.851146
vt 0.352940 0.077510
vt 0.364097 0.105260
vt 0.352940 0.429244
vt 0.364097 0.401494
vt 0.967219 0.800274
vt 0.967219 0.850918
vt 0.354141 0.080610
vt 0.364203 0.105635
vt 0.354141 0.432344
vt 0.364203 0.407320
vt 0.451832 0.020161
vt 0.026713 0.025329
vt 0.026583 0.014651
vt 0.451702 0.009482
vt 0.493659 0.435444
vt 0.485236 0.414496
vt 0.493659 0.083711
vt 0.485236 0.104660
vt 0.835922 0.967991
vt 0.634245 0.967991
vt 0.634245 0.466374
vt 0.835922 0.466374
vt 0.634245 0.970249
vt 0.431660 0.970249
vt 0.431660 0.466374
vt 0.431660 0.979521
vt 0.225347 0.979521
vt 0.225347 0.466374
vt 0.225347 0.993386
vt 0.013459 0.993386
vt 0.013459 0.466374
vt 0.962605 0.189176
vt 0.962605 0.290586
vt 0.956099 0.290586
vt 0.956099 0.189176
vt 0.960571 0.851146
vt 0.957247 0.851146
vt 0.957247 0.800274
vt 0.956099 0.189176
vt 0.956099 0.085026
vt 0.962605 0.085026
vt 0.962605 0.189176
vt 0.047588 0.057116
vt 0.452222 0.052196
vt 0.452352 0.062875
vt 0.047718 0.067794
vt 0.526278 0.364311
vt 0.534061 0.243017
vt 0.534061 0.364311
vt 0.974905 0.043181
vt 0.974905 0.290854
vt 0.968398 0.290854
vt 0.968398 0.043181
vt 0.780130 0.323050
vt 0.780130 0.198479
vt 0.787913 0.198479
vt 0.787913 0.323050
vt 0.987919 0.037514
vt 0.987919 0.284076
vt 0.981412 0.284076
vt 0.981412 0.037514
vt 0.038027 0.035872
vt 0.451962 0.030839
vt 0.452092 0.041518
vt 0.038157 0.046550
vt 0.974905 0.290854
vt 0.974905 0.043181
vt 0.981412 0.043181
vt 0.981412 0.290854
vt 0.026713 0.025329
vt 0.451832 0.020161
vt 0.026843 0.036008
vt 0.038287 0.057229
vt 0.721611 0.420411
vt 0.554363 0.420411
vt 0.737385 0.436184
vt 0.538589 0.436184
vt 0.844099 0.622418
vt 0.844099 0.473013
vt 0.993504 0.473013
vt 0.993504 0.622418
vt 0.650578 0.192239
vt 0.650578 0.128929
vt 0.713887 0.192239
vt 0.713887 0.128929
vt 0.935175 0.264178
vt 0.989489 0.311851
vt 0.989489 0.458122
vt 0.843218 0.311851
vt 0.843218 0.458122
vt 0.250099 0.100082
vt 0.250099 0.449194
vt 0.172039 0.449194
vt 0.172039 0.100082
vt 0.622257 0.216971
vt 0.622257 0.102106
vt 0.737123 0.102106
vt 0.737123 0.216971
vt 0.507391 0.102106
vt 0.507391 0.216971
vt 0.832817 0.226036
vt 0.832817 0.418918
vt 0.844142 0.783885
vt 0.844142 0.634216
vt 0.993811 0.634216
vt 0.993811 0.783885
s 0
usemtl Material.001
f 1/1/1 3/2/1 4/3/1 2/4/1
f 112/5/2 114/6/2 7/7/2 6/8/2
f 3/9/3 1/10/3 111/11/3 110/12/3
f 114/6/2 116/13/2 8/14/2 7/7/2
f 116/13/2 109/15/2 5/16/2 8/14/2
f 7/17/4 8/18/4 12/19/4 11/20/4
f 1/21/5 2/22/5 113/23/5 111/24/5
f 2/25/4 4/26/4 115/27/4 113/28/4
f 4/29/6 3/30/6 110/31/6 115/32/6
f 9/33/1 10/34/1 103/35/1 102/36/1
f 5/37/3 6/38/3 10/18/3 9/17/3
f 8/39/6 5/40/6 9/38/6 12/37/6
f 6/41/5 7/42/5 11/40/5 10/43/5
f 11/44/1 12/45/1 107/46/1 105/47/1
f 106/48/4 108/49/4 99/50/4 97/51/4
f 108/52/6 101/53/6 94/54/6 99/55/6
f 98/56/2 100/57/2 16/58/2 15/59/2
f 100/57/2 93/60/2 13/61/2 16/58/2
f 12/45/1 9/33/1 102/36/1 107/46/1
f 16/62/6 13/63/6 34/64/6 33/65/6
f 104/66/5 106/67/5 97/68/5 95/69/5
f 96/70/2 98/56/2 15/59/2 14/71/2
f 10/34/1 11/44/1 105/47/1 103/35/1
f 15/72/5 19/73/5 48/74/5 46/75/5
f 19/76/4 15/77/4 41/78/4 43/79/4
f 17/80/3 13/81/3 37/82/3 39/83/3
f 84/84/6 77/85/6 70/86/6 75/87/6
f 17/88/1 18/89/1 79/90/1 78/91/1
f 82/92/4 84/93/4 75/94/4 73/95/4
f 72/96/2 74/97/2 23/98/2 22/99/2
f 76/100/2 69/101/2 21/102/2 24/103/2
f 20/104/1 17/88/1 78/91/1 83/105/1
f 74/97/2 76/100/2 24/103/2 23/98/2
f 23/106/4 24/107/4 28/108/4 27/109/4
f 18/89/1 19/110/1 81/111/1 79/90/1
f 19/110/1 20/104/1 83/105/1 81/111/1
f 80/112/5 82/113/5 73/114/5 71/115/5
f 92/116/6 85/117/6 29/118/6 32/119/6
f 21/120/3 22/121/3 26/107/3 25/106/3
f 24/122/6 21/123/6 25/121/6 28/120/6
f 22/124/5 23/125/5 27/123/5 26/122/5
f 88/126/5 90/127/5 31/128/5 30/129/5
f 25/130/1 26/131/1 87/132/1 86/133/1
f 90/134/4 92/135/4 32/136/4 31/137/4
f 30/138/7 31/139/7 67/140/7 66/141/7
f 26/131/1 27/142/1 89/143/1 87/132/1
f 27/142/1 28/144/1 91/145/1 89/143/1
f 28/144/1 25/130/1 86/133/1 91/145/1
f 36/146/1 35/147/1 51/148/1 52/149/1
f 13/63/6 17/150/6 36/151/6 34/64/6
f 20/152/6 16/62/6 33/65/6 35/153/6
f 17/150/6 20/152/6 35/153/6 36/151/6
f 37/154/2 38/155/2 54/156/2 53/157/2
f 18/158/3 17/80/3 39/83/3 40/159/3
f 14/160/3 18/158/3 40/159/3 38/161/3
f 13/81/3 14/160/3 38/161/3 37/82/3
f 33/162/2 34/163/2 50/147/2 49/146/2
f 20/164/4 19/76/4 43/79/4 44/165/4
f 15/77/4 16/166/4 42/167/4 41/78/4
f 16/166/4 20/164/4 44/165/4 42/167/4
f 47/168/4 45/169/4 61/170/4 63/171/4
f 14/172/5 15/72/5 46/75/5 45/173/5
f 18/174/5 14/172/5 45/173/5 47/175/5
f 19/73/5 18/174/5 47/175/5 48/74/5
f 49/176/6 50/177/6 52/178/6 51/179/6
f 53/180/3 54/181/3 56/182/3 55/178/3
f 57/183/4 58/184/4 60/185/4 59/182/4
f 61/186/5 62/187/5 64/188/5 63/185/5
f 41/189/2 42/190/2 58/191/2 57/192/2
f 40/149/1 39/193/1 55/194/1 56/195/1
f 45/196/2 46/197/2 62/198/2 61/199/2
f 34/200/4 36/201/4 52/202/4 50/203/4
f 44/204/1 43/29/1 59/205/1 60/206/1
f 39/207/5 37/208/5 53/209/5 55/210/5
f 48/211/1 47/212/1 63/213/1 64/214/1
f 35/215/3 33/216/3 49/217/3 51/218/3
f 42/219/5 44/220/5 60/221/5 58/222/5
f 38/223/6 40/224/6 56/225/6 54/226/6
f 46/227/3 48/228/3 64/220/3 62/229/3
f 43/201/6 41/230/6 57/222/6 59/221/6
f 66/141/2 67/140/2 68/231/2 65/232/2
f 31/139/8 32/233/8 68/231/8 67/140/8
f 29/234/9 30/138/9 66/141/9 65/232/9
f 32/233/10 29/234/10 65/232/10 68/231/10
f 70/235/11 71/236/11 72/96/11 69/101/11
f 71/236/12 73/237/12 74/97/12 72/96/12
f 73/237/13 75/238/13 76/100/13 74/97/13
f 75/238/14 70/235/14 69/101/14 76/100/14
f 69/101/2 72/96/2 22/99/2 21/102/2
f 78/91/15 79/90/15 80/239/15 77/240/15
f 79/90/16 81/111/16 82/241/16 80/239/16
f 81/111/17 83/105/17 84/242/17 82/241/17
f 83/105/18 78/91/18 77/240/18 84/242/18
f 77/12/3 80/243/3 71/113/3 70/112/3
f 86/133/15 87/132/15 88/244/15 85/245/15
f 87/132/16 89/143/16 90/246/16 88/244/16
f 89/143/17 91/145/17 92/247/17 90/246/17
f 91/145/18 86/133/18 85/245/18 92/247/18
f 85/248/3 88/249/3 30/250/3 29/251/3
f 94/252/11 95/253/11 96/70/11 93/60/11
f 95/253/12 97/254/12 98/56/12 96/70/12
f 97/254/13 99/255/13 100/57/13 98/56/13
f 99/255/14 94/252/14 93/60/14 100/57/14
f 93/60/2 96/70/2 14/71/2 13/61/2
f 102/36/15 103/35/15 104/253/15 101/252/15
f 103/35/16 105/47/16 106/256/16 104/253/16
f 105/47/17 107/46/17 108/257/17 106/256/17
f 107/46/18 102/36/18 101/252/18 108/257/18
f 101/258/3 104/259/3 95/53/3 94/52/3
f 110/260/11 111/261/11 112/5/11 109/15/11
f 111/261/12 113/262/12 114/6/12 112/5/12
f 113/262/13 115/263/13 116/13/13 114/6/13
f 115/263/14 110/260/14 109/15/14 116/13/14
f 109/15/2 112/5/2 6/8/2 5/16/2
