# Blender 3.6.2
# www.blender.org
mtllib Stone_Chair.mtl
o Cube.003
v -0.390344 0.273512 6.897131
v -0.820794 0.265512 6.897131
v -0.390344 0.273512 2.632538
v -0.820794 0.265512 2.632538
v -0.422864 2.023397 6.897131
v -0.853314 2.015398 6.897131
v -0.422864 2.023397 2.632538
v -0.853314 2.015398 2.632538
v 1.059520 0.540330 6.897131
v 1.080538 0.306302 6.897131
v 1.059520 0.540330 2.632537
v 1.080538 0.306302 2.632537
v -0.678708 0.384214 6.897131
v -0.657690 0.150186 6.897131
v -0.678708 0.384214 2.632537
v -0.657690 0.150186 2.632537
v 0.956545 -0.727355 3.305912
v 0.621974 -0.733573 3.305912
v 0.956545 -0.727355 2.771358
v 0.621974 -0.733573 2.771358
v 1.032018 0.371257 3.459064
v 0.505734 0.361477 3.459064
v 1.032018 0.371257 2.618207
v 0.505734 0.361477 2.618207
v -0.401462 -0.727355 3.452562
v -0.736034 -0.733573 3.452562
v -0.401462 -0.727355 2.918008
v -0.736034 -0.733573 2.918008
v -0.325990 0.371257 3.605713
v -0.852273 0.361477 3.605713
v -0.325990 0.371257 2.764856
v -0.852273 0.361477 2.764856
v 0.948541 -0.727355 6.679852
v 0.613970 -0.733573 6.679852
v 0.948541 -0.727355 6.145298
v 0.613970 -0.733573 6.145298
v 1.024013 0.371257 6.833004
v 0.497730 0.361477 6.833004
v 1.024013 0.371257 5.992146
v 0.497730 0.361477 5.992146
v -0.401462 -0.727355 6.679852
v -0.736034 -0.733573 6.679852
v -0.401462 -0.727355 6.145298
v -0.736034 -0.733573 6.145298
v -0.325990 0.371257 6.833004
v -0.852273 0.361477 6.833004
v -0.325990 0.371257 5.992146
v -0.852273 0.361477 5.992146
vn 0.0186 -0.9998 -0.0000
vn -0.0000 -0.0000 -1.0000
vn -0.0186 0.9998 -0.0000
vn -0.0000 -0.0000 1.0000
vn 0.9998 0.0186 -0.0000
vn -0.9998 -0.0186 -0.0000
vn 0.9960 0.0895 -0.0000
vn -0.9960 -0.0895 -0.0000
vn -0.0895 0.9960 -0.0000
vn 0.0895 -0.9960 -0.0000
vn 0.0026 -0.1382 -0.9904
vn 0.0026 -0.1382 0.9904
vn 0.9976 -0.0685 -0.0000
vn -0.9944 -0.1056 -0.0000
vt 0.757890 0.466797
vt 0.871473 0.466797
vt 0.865272 0.716797
vt 0.757890 0.716797
vt 0.752031 0.736328
vt 0.859413 0.736328
vt 0.859413 0.986328
vt 0.752031 0.986328
vt 0.636796 0.488281
vt 0.734228 0.488281
vt 0.732275 0.738281
vt 0.634843 0.738281
vt 0.732275 0.988281
vt 0.634843 0.988281
vt 0.007624 0.403876
vt 0.596984 0.403876
vt 0.596984 0.993236
vt 0.007624 0.993236
vt 0.019448 0.013322
vt 0.395333 0.013322
vt 0.395333 0.389207
vt 0.019448 0.389207
s 0
usemtl Material.004
f 1/1/1 2/2/1 4/3/1 3/4/1
f 3/5/2 4/6/2 8/7/2 7/8/2
f 7/9/3 8/10/3 6/11/3 5/12/3
f 5/12/4 6/11/4 2/13/4 1/14/4
f 3/15/5 7/16/5 5/17/5 1/18/5
f 8/19/6 4/20/6 2/21/6 6/22/6
usemtl Material.003
f 9/1/7 10/2/7 12/3/7 11/4/7
f 11/5/2 12/6/2 16/7/2 15/8/2
f 15/9/8 16/10/8 14/11/8 13/12/8
f 13/12/4 14/11/4 10/13/4 9/14/4
f 11/15/9 15/16/9 13/17/9 9/18/9
f 16/19/10 12/20/10 10/21/10 14/22/10
usemtl Material.006
f 17/1/1 18/2/1 20/3/1 19/4/1
f 19/5/11 20/6/11 24/7/11 23/8/11
f 23/9/3 24/10/3 22/11/3 21/12/3
f 21/12/12 22/11/12 18/13/12 17/14/12
f 19/15/13 23/16/13 21/17/13 17/18/13
f 24/19/14 20/20/14 18/21/14 22/22/14
usemtl Material.009
f 25/1/1 26/2/1 28/3/1 27/4/1
f 27/5/11 28/6/11 32/7/11 31/8/11
f 31/9/3 32/10/3 30/11/3 29/12/3
f 29/12/12 30/11/12 26/13/12 25/14/12
f 27/15/13 31/16/13 29/17/13 25/18/13
f 32/19/14 28/20/14 26/21/14 30/22/14
usemtl Material.010
f 33/1/1 34/2/1 36/3/1 35/4/1
f 35/5/11 36/6/11 40/7/11 39/8/11
f 39/9/3 40/10/3 38/11/3 37/12/3
f 37/12/12 38/11/12 34/13/12 33/14/12
f 35/15/13 39/16/13 37/17/13 33/18/13
f 40/19/14 36/20/14 34/21/14 38/22/14
usemtl Material.011
f 41/1/1 42/2/1 44/3/1 43/4/1
f 43/5/11 44/6/11 48/7/11 47/8/11
f 47/9/3 48/10/3 46/11/3 45/12/3
f 45/12/12 46/11/12 42/13/12 41/14/12
f 43/15/13 47/16/13 45/17/13 41/18/13
f 48/19/14 44/20/14 42/21/14 46/22/14
