# Blender 3.6.2
# www.blender.org
mtllib Stone_Tile.mtl
o Plane
v -0.399627 0.241190 -0.345112
v 0.359950 0.241190 -0.345112
v -0.399627 0.185903 0.420513
v 0.359950 0.185903 0.420513
v -0.399627 0.116674 0.415514
v -0.399627 0.171962 -0.350111
v 0.359950 0.171962 -0.350111
v 0.359950 0.116674 0.415514
vn -0.0000 0.9974 0.0720
vn -0.0000 -0.9974 -0.0720
vn -0.0000 0.0720 -0.9974
vn 1.0000 -0.0000 -0.0000
vn -1.0000 -0.0000 -0.0000
vn -0.0000 -0.0720 0.9974
vt 0.491664 0.987029
vt 0.491664 0.525882
vt 0.952811 0.525882
vt 0.952811 0.987029
vt 0.010538 0.532224
vt 0.479650 0.532224
vt 0.479650 1.001336
vt 0.010538 1.001336
vt 0.004922 0.004972
vt 1.004922 0.004972
vt 1.004922 0.108275
vt 0.004922 0.108275
vt 1.010479 0.205165
vt 0.010487 0.209118
vt 0.010079 0.105816
vt 1.010071 0.101863
vt 0.999696 0.304280
vt -0.000301 0.306866
vt -0.000568 0.203564
vt 0.999429 0.200978
vt 1.004922 0.502872
vt 0.004922 0.502872
vt 0.004922 0.399569
vt 1.004922 0.399569
s 0
usemtl Material.001
f 1/1/1 3/2/1 4/3/1 2/4/1
f 6/5/2 7/6/2 8/7/2 5/8/2
f 1/9/3 2/10/3 7/11/3 6/12/3
f 2/13/4 4/14/4 8/15/4 7/16/4
f 3/17/5 1/18/5 6/19/5 5/20/5
f 4/21/6 3/22/6 5/23/6 8/24/6
