# Blender 3.6.2
# www.blender.org
mtllib Tall_Vase.mtl
o Vase_3
v 0.120946 1.971924 -0.712600
v -0.025128 1.971924 -0.668289
v -0.159751 1.971924 -0.596332
v -0.277749 1.971924 -0.499493
v -0.374587 1.971924 -0.381495
v -0.446545 1.971924 -0.246873
v -0.490856 1.971924 -0.100798
v -0.505818 1.971924 0.051114
v -0.490856 1.971924 0.203026
v -0.446545 1.971924 0.349101
v -0.374587 1.971924 0.483723
v -0.277749 1.971924 0.601721
v -0.159751 1.971924 0.698560
v -0.025128 1.971924 0.770517
v 0.120946 1.971924 0.814828
v 0.272858 1.971924 0.829790
v 0.424770 1.971924 0.814828
v 0.570845 1.971924 0.770517
v 0.705468 1.971924 0.698560
v 0.823466 1.971924 0.601721
v 0.920304 1.971924 0.483723
v 0.992261 1.971924 0.349101
v 1.036573 1.971924 0.203026
v 1.051535 1.971924 0.051114
v 1.036573 1.971924 -0.100798
v 0.992261 1.971924 -0.246873
v 0.920304 1.971924 -0.381495
v 0.823466 1.971924 -0.499493
v 0.705468 1.971924 -0.596332
v 0.570845 1.971924 -0.668289
v 0.424770 1.971924 -0.712600
v 0.272858 1.971924 -0.727562
v 0.272858 -0.028076 -0.717256
v 0.272858 0.202438 -0.948886
v 0.422760 -0.028076 -0.702492
v 0.467949 0.202438 -0.929671
v 0.566901 -0.028076 -0.658768
v 0.655542 0.202438 -0.872765
v 0.699742 -0.028076 -0.587763
v 0.828429 0.202438 -0.780355
v 0.816179 -0.028076 -0.492206
v 0.979965 0.202438 -0.655992
v 0.911735 -0.028076 -0.375770
v 1.104328 0.202438 -0.504456
v 0.982741 -0.028076 -0.242928
v 1.196738 0.202438 -0.331569
v 1.026465 -0.028076 -0.098787
v 1.253644 0.202438 -0.143976
v 1.041229 -0.028076 0.051114
v 1.272859 0.202438 0.051114
v 1.026465 -0.028076 0.201016
v 1.253644 0.202438 0.246205
v 0.982741 -0.028076 0.345157
v 1.196738 0.202438 0.433798
v 0.911735 -0.028076 0.477998
v 1.104328 0.202438 0.606685
v 0.816179 -0.028076 0.594434
v 0.979965 0.202438 0.758221
v 0.699742 -0.028076 0.689991
v 0.828429 0.202438 0.882584
v 0.566901 -0.028076 0.760996
v 0.655542 0.202438 0.974994
v 0.422760 -0.028076 0.804721
v 0.467949 0.202438 1.031900
v 0.272858 -0.028076 0.819485
v 0.272858 0.202438 1.051114
v 0.122957 -0.028076 0.804721
v 0.077768 0.202438 1.031900
v -0.021184 -0.028076 0.760996
v -0.109825 0.202438 0.974994
v -0.154025 -0.028076 0.689991
v -0.282712 0.202438 0.882584
v -0.270462 -0.028076 0.594434
v -0.434248 0.202438 0.758221
v -0.366018 -0.028076 0.477998
v -0.558611 0.202438 0.606685
v -0.437024 -0.028076 0.345157
v -0.651021 0.202438 0.433798
v -0.480748 -0.028076 0.201016
v -0.707927 0.202438 0.246205
v -0.495512 -0.028076 0.051114
v -0.727141 0.202438 0.051114
v -0.480748 -0.028076 -0.098787
v -0.707927 0.202438 -0.143976
v -0.437024 -0.028076 -0.242928
v -0.651021 0.202438 -0.331569
v -0.366018 -0.028076 -0.375770
v -0.558611 0.202438 -0.504456
v -0.270462 -0.028076 -0.492206
v -0.434248 0.202438 -0.655992
v -0.154025 -0.028076 -0.587763
v -0.282712 0.202438 -0.780355
v -0.021184 -0.028076 -0.658768
v -0.109825 0.202438 -0.872765
v 0.122957 -0.028076 -0.702492
v 0.077768 0.202438 -0.929671
v 0.272858 1.906815 -0.948886
v 0.272858 1.971924 -0.883461
v 0.455185 1.971924 -0.865504
v 0.467949 1.906815 -0.929671
v 0.630505 1.971924 -0.812321
v 0.655542 1.906815 -0.872765
v 0.792081 1.971924 -0.725957
v 0.828429 1.906815 -0.780355
v 0.933703 1.971924 -0.609730
v 0.979965 1.906815 -0.655992
v 1.049930 1.971924 -0.468108
v 1.104328 1.906815 -0.504456
v 1.136294 1.971924 -0.306532
v 1.196738 1.906815 -0.331569
v 1.189476 1.971924 -0.131212
v 1.253644 1.906815 -0.143976
v 1.207434 1.971924 0.051114
v 1.272859 1.906815 0.051114
v 1.189476 1.971924 0.233441
v 1.253644 1.906815 0.246205
v 1.136294 1.971924 0.408761
v 1.196738 1.906815 0.433798
v 1.049930 1.971924 0.570336
v 1.104328 1.906815 0.606685
v 0.933703 1.971924 0.711959
v 0.979965 1.906815 0.758221
v 0.792081 1.971924 0.828185
v 0.828429 1.906815 0.882584
v 0.630505 1.971924 0.914549
v 0.655542 1.906815 0.974994
v 0.455185 1.971924 0.967732
v 0.467949 1.906815 1.031900
v 0.272858 1.971924 0.985690
v 0.272858 1.906815 1.051114
v 0.090532 1.971924 0.967732
v 0.077768 1.906815 1.031900
v -0.084788 1.971924 0.914549
v -0.109825 1.906815 0.974994
v -0.246364 1.971924 0.828185
v -0.282712 1.906815 0.882584
v -0.387986 1.971924 0.711959
v -0.434248 1.906815 0.758221
v -0.504213 1.971924 0.570336
v -0.558611 1.906815 0.606685
v -0.590577 1.971924 0.408761
v -0.651021 1.906815 0.433798
v -0.643759 1.971924 0.233441
v -0.707927 1.906815 0.246205
v -0.661717 1.971924 0.051114
v -0.727141 1.906815 0.051114
v -0.643759 1.971924 -0.131212
v -0.707927 1.906815 -0.143976
v -0.590577 1.971924 -0.306532
v -0.651021 1.906815 -0.331569
v -0.504213 1.971924 -0.468108
v -0.558611 1.906815 -0.504456
v -0.387986 1.971924 -0.609730
v -0.434248 1.906815 -0.655992
v -0.246364 1.971924 -0.725957
v -0.282712 1.906815 -0.780355
v -0.084788 1.971924 -0.812321
v -0.109825 1.906815 -0.872765
v 0.090532 1.971924 -0.865504
v 0.077768 1.906815 -0.929671
v -0.025128 0.360841 -0.668289
v 0.120946 0.360841 -0.712600
v -0.277749 0.360841 -0.499493
v -0.159751 0.360841 -0.596332
v -0.446544 0.360841 -0.246873
v -0.374587 0.360841 -0.381495
v -0.505818 0.360841 0.051114
v -0.490856 0.360841 -0.100798
v -0.446544 0.360841 0.349101
v -0.490856 0.360841 0.203026
v -0.277749 0.360841 0.601721
v -0.374587 0.360841 0.483723
v -0.025128 0.360841 0.770517
v -0.159751 0.360841 0.698560
v 0.272858 0.360841 0.829790
v 0.120946 0.360841 0.814828
v 0.570845 0.360841 0.770517
v 0.424771 0.360841 0.814828
v 0.823466 0.360841 0.601721
v 0.705468 0.360841 0.698560
v 0.992261 0.360841 0.349101
v 0.920304 0.360841 0.483723
v 1.051535 0.360841 0.051114
v 1.036573 0.360841 0.203026
v 0.992261 0.360841 -0.246873
v 1.036573 0.360841 -0.100798
v 0.823466 0.360841 -0.499493
v 0.920304 0.360841 -0.381495
v 0.570845 0.360841 -0.668289
v 0.705468 0.360841 -0.596332
v 0.272858 0.360841 -0.727562
v 0.424771 0.360841 -0.712600
vn 0.1951 -0.0000 -0.9808
vn 0.3827 -0.0000 -0.9239
vn 0.5556 -0.0000 -0.8315
vn 0.7071 -0.0000 -0.7071
vn 0.8315 -0.0000 -0.5556
vn 0.9239 -0.0000 -0.3827
vn 0.9808 -0.0000 -0.1951
vn 1.0000 -0.0000 -0.0000
vn 0.9808 -0.0000 0.1951
vn 0.9239 -0.0000 0.3827
vn 0.8315 -0.0000 0.5556
vn 0.7071 -0.0000 0.7071
vn 0.5556 -0.0000 0.8315
vn 0.3827 -0.0000 0.9239
vn 0.1951 -0.0000 0.9808
vn -0.0000 -0.0000 1.0000
vn -0.1951 -0.0000 0.9808
vn -0.3827 -0.0000 0.9239
vn -0.5556 -0.0000 0.8315
vn -0.7071 -0.0000 0.7071
vn -0.8315 -0.0000 0.5556
vn -0.9239 -0.0000 0.3827
vn -0.9808 -0.0000 0.1951
vn -1.0000 -0.0000 -0.0000
vn -0.9808 -0.0000 -0.1951
vn -0.9239 -0.0000 -0.3827
vn -0.8315 -0.0000 -0.5556
vn -0.7071 -0.0000 -0.7071
vn -0.5556 -0.0000 -0.8315
vn -0.3827 -0.0000 -0.9239
vn -0.1951 -0.0000 -0.9808
vn -0.0000 -0.0000 -1.0000
vn -0.0000 1.0000 -0.0000
vn -0.0000 -0.7088 -0.7054
vn 0.1376 -0.7088 -0.6918
vn 0.2699 -0.7088 -0.6517
vn 0.3919 -0.7088 -0.5865
vn 0.4988 -0.7088 -0.4988
vn 0.5865 -0.7088 -0.3919
vn 0.6517 -0.7088 -0.2699
vn 0.6918 -0.7088 -0.1376
vn 0.7054 -0.7088 -0.0000
vn 0.6918 -0.7088 0.1376
vn 0.6517 -0.7088 0.2699
vn 0.5865 -0.7088 0.3919
vn 0.4988 -0.7088 0.4988
vn 0.3919 -0.7088 0.5865
vn 0.2699 -0.7088 0.6517
vn 0.1376 -0.7088 0.6918
vn -0.0000 -0.7088 0.7054
vn -0.1376 -0.7088 0.6918
vn -0.2699 -0.7088 0.6517
vn -0.3919 -0.7088 0.5865
vn -0.4988 -0.7088 0.4988
vn -0.5865 -0.7088 0.3919
vn -0.6517 -0.7088 0.2699
vn -0.6918 -0.7088 0.1376
vn -0.7054 -0.7088 -0.0000
vn -0.6918 -0.7088 -0.1376
vn -0.6517 -0.7088 -0.2699
vn -0.5865 -0.7088 -0.3919
vn -0.4988 -0.7088 -0.4988
vn -0.3919 -0.7088 -0.5865
vn -0.2699 -0.7088 -0.6517
vn -0.1376 -0.7088 -0.6918
vn -0.0000 -1.0000 -0.0000
vn 0.1376 0.7088 -0.6918
vn -0.0000 0.7088 -0.7054
vn 0.2699 0.7088 -0.6517
vn 0.3919 0.7088 -0.5865
vn 0.4988 0.7088 -0.4988
vn 0.5865 0.7088 -0.3919
vn 0.6517 0.7088 -0.2699
vn 0.6918 0.7088 -0.1376
vn 0.7054 0.7088 -0.0000
vn 0.6918 0.7088 0.1376
vn 0.6517 0.7088 0.2699
vn 0.5865 0.7088 0.3919
vn 0.4988 0.7088 0.4988
vn 0.3919 0.7088 0.5865
vn 0.2699 0.7088 0.6517
vn 0.1376 0.7088 0.6918
vn -0.0000 0.7088 0.7054
vn -0.1376 0.7088 0.6918
vn -0.2699 0.7088 0.6517
vn -0.3919 0.7088 0.5865
vn -0.4988 0.7088 0.4988
vn -0.5865 0.7088 0.3919
vn -0.6517 0.7088 0.2699
vn -0.6918 0.7088 0.1376
vn -0.7054 0.7088 -0.0000
vn -0.6918 0.7088 -0.1376
vn -0.6517 0.7088 -0.2699
vn -0.5865 0.7088 -0.3919
vn -0.4988 0.7088 -0.4988
vn -0.3919 0.7088 -0.5865
vn -0.2699 0.7088 -0.6517
vn -0.1376 0.7088 -0.6918
vt 0.646691 0.539467
vt 0.646691 0.300916
vt 0.618345 0.300916
vt 0.618345 0.539467
vt 0.589999 0.539467
vt 0.589999 0.300916
vt 0.561653 0.300916
vt 0.561653 0.539467
vt 0.533307 0.300916
vt 0.533307 0.539467
vt 0.504961 0.300916
vt 0.504961 0.539467
vt 0.476615 0.300916
vt 0.476615 0.539467
vt 0.448269 0.300916
vt 0.448269 0.539467
vt 0.419923 0.300916
vt 0.419923 0.539467
vt 0.391577 0.300916
vt 0.391577 0.539467
vt 0.363231 0.300916
vt 0.363231 0.539467
vt 0.334884 0.300916
vt 0.334884 0.539467
vt 0.306538 0.300916
vt 0.306538 0.539467
vt 0.278192 0.300916
vt 0.278192 0.539467
vt 0.249846 0.300916
vt 0.249846 0.539467
vt 0.221500 0.300916
vt 0.221500 0.539467
vt 0.193154 0.300916
vt 0.193154 0.539467
vt 0.164808 0.300916
vt 0.164808 0.539467
vt 0.136462 0.300916
vt 0.136462 0.539467
vt 0.108116 0.300916
vt 0.108116 0.539467
vt 0.079770 0.300916
vt 0.079770 0.539467
vt 0.051424 0.300916
vt 0.051424 0.539467
vt 0.958498 0.539467
vt 0.958498 0.300916
vt 0.930152 0.300916
vt 0.930152 0.539467
vt 0.901806 0.300916
vt 0.901806 0.539467
vt 0.873459 0.300916
vt 0.873459 0.539467
vt 0.845113 0.300916
vt 0.845113 0.539467
vt 0.816767 0.300916
vt 0.816767 0.539467
vt 0.788421 0.300916
vt 0.788421 0.539467
vt 0.760075 0.300916
vt 0.760075 0.539467
vt 0.731729 0.300916
vt 0.731729 0.539467
vt 0.703383 0.300916
vt 0.703383 0.539467
vt 0.448269 0.266177
vt 0.476615 0.266177
vt 0.476615 0.040683
vt 0.448269 0.040683
vt 0.675037 0.300916
vt 0.675037 0.539467
vt 0.589999 0.287997
vt 0.618345 0.287997
vt 0.618345 0.266177
vt 0.589999 0.266177
vt 0.646691 0.585206
vt 0.675037 0.585206
vt 0.618345 0.585206
vt 0.589999 0.585206
vt 0.561653 0.585206
vt 0.533307 0.585206
vt 0.504961 0.585206
vt 0.476615 0.585206
vt 0.448269 0.585206
vt 0.419923 0.585206
vt 0.391577 0.585206
vt 0.363231 0.585206
vt 0.334884 0.585206
vt 0.306538 0.585206
vt 0.278192 0.585206
vt 0.249846 0.585206
vt 0.221500 0.585206
vt 0.193154 0.585206
vt 0.164808 0.585206
vt 0.136462 0.585206
vt 0.108116 0.585206
vt 0.079770 0.585206
vt 0.051424 0.585206
vt 0.930152 0.585206
vt 0.958498 0.585206
vt 0.901806 0.585206
vt 0.873459 0.585206
vt 0.845113 0.585206
vt 0.816767 0.585206
vt 0.788421 0.585206
vt 0.760075 0.585206
vt 0.731729 0.585206
vt 0.703383 0.585206
vt 0.404742 0.711747
vt 0.418316 0.744517
vt 0.425236 0.779305
vt 0.425236 0.814775
vt 0.418316 0.849563
vt 0.404742 0.882333
vt 0.385036 0.911825
vt 0.359955 0.936906
vt 0.330463 0.956612
vt 0.297693 0.970186
vt 0.262905 0.977105
vt 0.227435 0.977105
vt 0.192647 0.970186
vt 0.159877 0.956612
vt 0.130385 0.936906
vt 0.105304 0.911825
vt 0.085598 0.882333
vt 0.072024 0.849563
vt 0.065105 0.814775
vt 0.065105 0.779305
vt 0.072024 0.744517
vt 0.085598 0.711747
vt 0.105304 0.682255
vt 0.130385 0.657174
vt 0.159877 0.637468
vt 0.192647 0.623894
vt 0.227435 0.616974
vt 0.262905 0.616974
vt 0.297693 0.623894
vt 0.330463 0.637468
vt 0.359955 0.657174
vt 0.385036 0.682255
vt 0.675037 0.287997
vt 0.646691 0.287997
vt 0.561653 0.287997
vt 0.533307 0.287997
vt 0.504961 0.287997
vt 0.476615 0.287997
vt 0.448269 0.300916
vt 0.448269 0.287997
vt 0.419923 0.300916
vt 0.419923 0.287997
vt 0.391577 0.300916
vt 0.391577 0.287997
vt 0.363231 0.300916
vt 0.363231 0.287997
vt 0.334885 0.300916
vt 0.334885 0.287997
vt 0.306539 0.300916
vt 0.306539 0.287997
vt 0.278193 0.300916
vt 0.278193 0.287997
vt 0.249847 0.300916
vt 0.249847 0.287997
vt 0.221501 0.300916
vt 0.221501 0.287997
vt 0.193155 0.300916
vt 0.193155 0.287997
vt 0.164809 0.300916
vt 0.164809 0.287997
vt 0.136463 0.300916
vt 0.136463 0.287997
vt 0.108117 0.300916
vt 0.108117 0.287997
vt 0.079771 0.300916
vt 0.079771 0.287997
vt 0.051425 0.300916
vt 0.051425 0.287997
vt 0.958498 0.287997
vt 0.930152 0.287997
vt 0.901806 0.287997
vt 0.873459 0.287997
vt 0.845113 0.287997
vt 0.816767 0.287997
vt 0.788421 0.287997
vt 0.760075 0.287997
vt 0.731729 0.287997
vt 0.703383 0.287997
vt 0.334885 0.287997
vt 0.363231 0.287997
vt 0.363231 0.266177
vt 0.334885 0.266177
vt 0.079771 0.287997
vt 0.108117 0.287997
vt 0.108117 0.266177
vt 0.079771 0.266177
vt 0.760075 0.266177
vt 0.731729 0.266177
vt 0.448269 0.287997
vt 0.193155 0.287997
vt 0.221501 0.287997
vt 0.221501 0.266177
vt 0.193155 0.266177
vt 0.873459 0.266177
vt 0.845113 0.266177
vt 0.561653 0.266177
vt 0.306539 0.287997
vt 0.306539 0.266177
vt 0.051425 0.287997
vt 0.051425 0.266177
vt 0.703383 0.266177
vt 0.419923 0.287997
vt 0.419923 0.266177
vt 0.164809 0.287997
vt 0.164809 0.266177
vt 0.816767 0.266177
vt 0.675037 0.266177
vt 0.533307 0.266177
vt 0.278193 0.287997
vt 0.278193 0.266177
vt 0.958498 0.266177
vt 0.930152 0.266177
vt 0.646691 0.266177
vt 0.391577 0.287997
vt 0.391577 0.266177
vt 0.136463 0.287997
vt 0.136463 0.266177
vt 0.788421 0.266177
vt 0.533307 0.266177
vt 0.504961 0.266177
vt 0.249847 0.287997
vt 0.249847 0.266177
vt 0.930152 0.266177
vt 0.901806 0.266177
vt 0.557805 0.937272
vt 0.530830 0.919248
vt 0.507889 0.896307
vt 0.489865 0.869332
vt 0.477449 0.839358
vt 0.471120 0.807539
vt 0.471120 0.775096
vt 0.477449 0.743276
vt 0.489865 0.713303
vt 0.507889 0.686327
vt 0.530830 0.663387
vt 0.557805 0.645362
vt 0.587778 0.632947
vt 0.619598 0.626618
vt 0.652041 0.626618
vt 0.683861 0.632947
vt 0.713834 0.645362
vt 0.740809 0.663387
vt 0.763750 0.686327
vt 0.781774 0.713303
vt 0.794190 0.743276
vt 0.800519 0.775096
vt 0.800519 0.807539
vt 0.794190 0.839358
vt 0.781774 0.869332
vt 0.763750 0.896307
vt 0.740809 0.919248
vt 0.713834 0.937272
vt 0.683861 0.949688
vt 0.652041 0.956017
vt 0.619598 0.956017
vt 0.587778 0.949688
vt 0.136463 0.266177
vt 0.164809 0.266177
vt 0.164809 0.040683
vt 0.136463 0.040683
vt 0.675037 0.040683
vt 0.646691 0.040683
vt 0.533307 0.040683
vt 0.504961 0.040683
vt 0.193155 0.266177
vt 0.221501 0.266177
vt 0.221501 0.040683
vt 0.193155 0.040683
vt 0.703383 0.040683
vt 0.675037 0.040683
vt 0.589999 0.040683
vt 0.561653 0.040683
vt 0.249847 0.266177
vt 0.278193 0.266177
vt 0.278193 0.040683
vt 0.249847 0.040683
vt 0.760075 0.040683
vt 0.731729 0.040683
vt 0.618345 0.040683
vt 0.334885 0.040683
vt 0.306539 0.040683
vt 0.816767 0.040683
vt 0.788421 0.040683
vt 0.391577 0.040683
vt 0.363231 0.040683
vt 0.873459 0.040683
vt 0.845113 0.040683
vt 0.419923 0.040683
vt 0.930152 0.040683
vt 0.901806 0.040683
vt 0.051425 0.266177
vt 0.079771 0.266177
vt 0.079771 0.040683
vt 0.051425 0.040683
vt 0.108117 0.266177
vt 0.108117 0.040683
vt 0.731729 0.040683
vt 0.589999 0.040683
vt 0.788421 0.040683
vt 0.760075 0.040683
vt 0.816767 0.040683
vt 0.901806 0.040683
vt 0.873459 0.040683
vt 0.958498 0.040683
s 1
f 36/1/1 100/2/1 102/3/2 38/4/2
f 40/5/3 104/6/3 106/7/4 42/8/4
f 42/8/4 106/7/4 108/9/5 44/10/5
f 44/10/5 108/9/5 110/11/6 46/12/6
f 46/12/6 110/11/6 112/13/7 48/14/7
f 48/14/7 112/13/7 114/15/8 50/16/8
f 50/16/8 114/15/8 116/17/9 52/18/9
f 52/18/9 116/17/9 118/19/10 54/20/10
f 54/20/10 118/19/10 120/21/11 56/22/11
f 56/22/11 120/21/11 122/23/12 58/24/12
f 58/24/12 122/23/12 124/25/13 60/26/13
f 60/26/13 124/25/13 126/27/14 62/28/14
f 62/28/14 126/27/14 128/29/15 64/30/15
f 64/30/15 128/29/15 130/31/16 66/32/16
f 66/32/16 130/31/16 132/33/17 68/34/17
f 68/34/17 132/33/17 134/35/18 70/36/18
f 70/36/18 134/35/18 136/37/19 72/38/19
f 72/38/19 136/37/19 138/39/20 74/40/20
f 74/40/20 138/39/20 140/41/21 76/42/21
f 76/42/21 140/41/21 142/43/22 78/44/22
f 78/45/22 142/46/22 144/47/23 80/48/23
f 80/48/23 144/47/23 146/49/24 82/50/24
f 82/50/24 146/49/24 148/51/25 84/52/25
f 84/52/25 148/51/25 150/53/26 86/54/26
f 86/54/26 150/53/26 152/55/27 88/56/27
f 88/56/27 152/55/27 154/57/28 90/58/28
f 90/58/28 154/57/28 156/59/29 92/60/29
f 92/60/29 156/59/29 158/61/30 94/62/30
f 94/62/30 158/61/30 160/63/31 96/64/31
f 24/65/24 25/66/23 186/67/23 183/68/24
f 96/64/31 160/63/31 97/69/32 34/70/32
f 38/4/2 102/3/2 104/6/3 40/5/3
f 103/71/33 101/72/33 30/73/33 29/74/33
f 34/70/34 36/1/35 35/75/35 33/76/34
f 36/1/35 38/4/36 37/77/36 35/75/35
f 38/4/36 40/5/37 39/78/37 37/77/36
f 40/5/37 42/8/38 41/79/38 39/78/37
f 42/8/38 44/10/39 43/80/39 41/79/38
f 44/10/39 46/12/40 45/81/40 43/80/39
f 46/12/40 48/14/41 47/82/41 45/81/40
f 48/14/41 50/16/42 49/83/42 47/82/41
f 50/16/42 52/18/43 51/84/43 49/83/42
f 52/18/43 54/20/44 53/85/44 51/84/43
f 54/20/44 56/22/45 55/86/45 53/85/44
f 56/22/45 58/24/46 57/87/46 55/86/45
f 58/24/46 60/26/47 59/88/47 57/87/46
f 60/26/47 62/28/48 61/89/48 59/88/47
f 62/28/48 64/30/49 63/90/49 61/89/48
f 64/30/49 66/32/50 65/91/50 63/90/49
f 66/32/50 68/34/51 67/92/51 65/91/50
f 68/34/51 70/36/52 69/93/52 67/92/51
f 70/36/52 72/38/53 71/94/53 69/93/52
f 72/38/53 74/40/54 73/95/54 71/94/53
f 74/40/54 76/42/55 75/96/55 73/95/54
f 76/42/55 78/44/56 77/97/56 75/96/55
f 78/45/56 80/48/57 79/98/57 77/99/56
f 80/48/57 82/50/58 81/100/58 79/98/57
f 82/50/58 84/52/59 83/101/59 81/100/58
f 84/52/59 86/54/60 85/102/60 83/101/59
f 86/54/60 88/56/61 87/103/61 85/102/60
f 88/56/61 90/58/62 89/104/62 87/103/61
f 90/58/62 92/60/63 91/105/63 89/104/62
f 92/60/63 94/62/64 93/106/64 91/105/63
f 94/62/64 96/64/65 95/107/65 93/106/64
f 96/64/65 34/70/34 33/76/34 95/107/65
f 33/108/66 35/109/66 37/110/66 39/111/66 41/112/66 43/113/66 45/114/66 47/115/66 49/116/66 51/117/66 53/118/66 55/119/66 57/120/66 59/121/66 61/122/66 63/123/66 65/124/66 67/125/66 69/126/66 71/127/66 73/128/66 75/129/66 77/130/66 79/131/66 81/132/66 83/133/66 85/134/66 87/135/66 89/136/66 91/137/66 93/138/66 95/139/66
f 100/2/67 97/69/68 98/140/68 99/141/67
f 102/3/69 100/2/67 99/141/67 101/72/69
f 104/6/70 102/3/69 101/72/69 103/71/70
f 106/7/71 104/6/70 103/71/70 105/142/71
f 108/9/72 106/7/71 105/142/71 107/143/72
f 110/11/73 108/9/72 107/143/72 109/144/73
f 112/13/74 110/11/73 109/144/73 111/145/74
f 114/146/75 112/13/74 111/145/74 113/147/75
f 116/148/76 114/146/75 113/147/75 115/149/76
f 118/150/77 116/148/76 115/149/76 117/151/77
f 120/152/78 118/150/77 117/151/77 119/153/78
f 122/154/79 120/152/78 119/153/78 121/155/79
f 124/156/80 122/154/79 121/155/79 123/157/80
f 126/158/81 124/156/80 123/157/80 125/159/81
f 128/160/82 126/158/81 125/159/81 127/161/82
f 130/162/83 128/160/82 127/161/82 129/163/83
f 132/164/84 130/162/83 129/163/83 131/165/84
f 134/166/85 132/164/84 131/165/84 133/167/85
f 136/168/86 134/166/85 133/167/85 135/169/86
f 138/170/87 136/168/86 135/169/86 137/171/87
f 140/172/88 138/170/87 137/171/87 139/173/88
f 142/174/89 140/172/88 139/173/88 141/175/89
f 144/47/90 142/46/89 141/176/89 143/177/90
f 146/49/91 144/47/90 143/177/90 145/178/91
f 148/51/92 146/49/91 145/178/91 147/179/92
f 150/53/93 148/51/92 147/179/92 149/180/93
f 152/55/94 150/53/93 149/180/93 151/181/94
f 154/57/95 152/55/94 151/181/94 153/182/95
f 156/59/96 154/57/95 153/182/95 155/183/96
f 158/61/97 156/59/96 155/183/96 157/184/97
f 160/63/98 158/61/97 157/184/97 159/185/98
f 97/69/68 160/63/98 159/185/98 98/140/68
f 34/70/32 97/69/32 100/2/1 36/1/1
f 121/186/33 119/187/33 21/188/33 20/189/33
f 139/190/33 137/191/33 12/192/33 11/193/33
f 157/184/33 155/183/33 3/194/33 2/195/33
f 113/196/33 111/145/33 25/66/33 24/65/33
f 131/197/33 129/198/33 16/199/33 15/200/33
f 149/180/33 147/179/33 7/201/33 6/202/33
f 105/142/33 103/71/33 29/74/33 28/203/33
f 123/204/33 121/186/33 20/189/33 19/205/33
f 141/206/33 139/190/33 11/193/33 10/207/33
f 159/185/33 157/184/33 2/195/33 1/208/33
f 115/209/33 113/196/33 24/65/33 23/210/33
f 133/211/33 131/197/33 15/200/33 14/212/33
f 151/181/33 149/180/33 6/202/33 5/213/33
f 98/140/33 159/185/33 1/208/33 32/214/33
f 107/143/33 105/142/33 28/203/33 27/215/33
f 125/216/33 123/204/33 19/205/33 18/217/33
f 143/177/33 141/176/33 10/218/33 9/219/33
f 99/141/33 98/140/33 32/214/33 31/220/33
f 117/221/33 115/209/33 23/210/33 22/222/33
f 135/223/33 133/211/33 14/212/33 13/224/33
f 153/182/33 151/181/33 5/213/33 4/225/33
f 109/144/33 107/143/33 27/226/33 26/227/33
f 127/228/33 125/216/33 18/217/33 17/229/33
f 145/178/33 143/177/33 9/230/33 8/231/33
f 101/72/33 99/141/33 31/220/33 30/73/33
f 119/187/33 117/221/33 22/222/33 21/188/33
f 137/191/33 135/223/33 13/224/33 12/192/33
f 155/183/33 153/182/33 4/225/33 3/194/33
f 111/145/33 109/144/33 26/227/33 25/66/33
f 129/198/33 127/228/33 17/229/33 16/199/33
f 147/179/33 145/178/33 8/231/33 7/201/33
f 192/232/33 191/233/33 162/234/33 161/235/33 164/236/33 163/237/33 166/238/33 165/239/33 168/240/33 167/241/33 170/242/33 169/243/33 172/244/33 171/245/33 174/246/33 173/247/33 176/248/33 175/249/33 178/250/33 177/251/33 180/252/33 179/253/33 182/254/33 181/255/33 184/256/33 183/257/33 186/258/33 185/259/33 188/260/33 187/261/33 190/262/33 189/263/33
f 13/264/3 14/265/2 173/266/2 174/267/3
f 31/220/17 32/214/16 191/268/16 192/269/17
f 26/227/22 27/226/21 188/270/21 185/271/22
f 15/272/1 16/273/32 175/274/32 176/275/1
f 32/214/16 1/208/15 162/276/15 191/277/16
f 28/203/20 29/74/19 190/278/19 187/279/20
f 17/280/31 18/281/30 177/282/30 178/283/31
f 2/195/14 3/194/13 164/284/13 161/285/14
f 30/73/18 31/220/17 192/269/17 189/286/18
f 19/205/29 20/189/28 179/287/28 180/288/29
f 4/225/12 5/213/11 166/289/11 163/290/12
f 21/188/27 22/222/26 181/291/26 182/292/27
f 6/202/10 7/201/9 168/293/9 165/294/10
f 23/210/25 24/65/24 183/68/24 184/295/25
f 8/231/8 9/230/7 170/296/7 167/297/8
f 25/66/23 26/227/22 185/271/22 186/67/23
f 10/298/6 11/299/5 172/300/5 169/301/6
f 27/215/21 28/203/20 187/279/20 188/270/21
f 12/302/4 13/264/3 174/267/3 171/303/4
f 1/208/15 2/195/14 161/304/14 162/276/15
f 29/74/19 30/73/18 189/286/18 190/305/19
f 14/265/2 15/272/1 176/275/1 173/266/2
f 3/194/13 4/225/12 163/306/12 164/307/13
f 16/273/32 17/280/31 178/283/31 175/274/32
f 5/213/11 6/202/10 165/294/10 166/308/11
f 18/281/30 19/205/29 180/288/29 177/282/30
f 7/201/9 8/231/8 167/309/8 168/310/9
f 20/189/28 21/188/27 182/292/27 179/287/28
f 9/219/7 10/218/6 169/311/6 170/296/7
f 22/222/26 23/210/25 184/295/25 181/291/26
f 11/299/5 12/302/4 171/303/4 172/300/5
